<svg xmlns="http://www.w3.org/2000/svg" viewBox="0 0 1924 250.78"><defs><style>.cls-1{fill:none;stroke:#00aeef;stroke-miterlimit:10;stroke-width:4px;}</style></defs><title>Header</title><g id="Layer_2" data-name="Layer 2"><g id="Layer_1-2" data-name="Layer 1"><path class="cls-1" d="M1455,2c0,58.94-220.72,108-493,108S469,61,469,2c0,0,220.72,3,493,3S1455,2,1455,2Z"/><line class="cls-1" x1="371" y1="3.06" x2="441.5" y2="73.56"/><line class="cls-1" x1="441.5" y1="73.56" x2="347" y2="178.06"/><line class="cls-1" x1="347" y1="178.06" x2="2" y2="248.06"/><line class="cls-1" x1="2" y1="248.06" x2="2" y2="2.03"/><line class="cls-1" x1="2" y1="2.03" x2="371" y2="2.03"/><line class="cls-1" x1="1553" y1="3.82" x2="1482.5" y2="74.32"/><line class="cls-1" x1="1482.5" y1="74.32" x2="1577" y2="178.82"/><line class="cls-1" x1="1577" y1="178.82" x2="1922" y2="248.82"/><line class="cls-1" x1="1922" y1="248.82" x2="1922" y2="2.79"/><line class="cls-1" x1="1922" y1="2.79" x2="1553" y2="2.79"/></g></g></svg>