<svg xmlns="http://www.w3.org/2000/svg" viewBox="0 0 1924 250.78"><defs><style>.a{fill:none;stroke:#00aeef;stroke-miterlimit:10;stroke-width:4px}.b{fill:#00aeef}</style></defs><title>Header_1</title><path class="a" d="M1455 2c0 58.94-220.72 108-493 108S469 61 469 2c0 0 220.72 3 493 3s493-3 493-3zM371 3.06l70.5 70.5M441.5 73.56L347 178.06M347 178.06l-345 70M2 248.06V2.03M2 2.03h369M1553 3.82l-70.5 70.5M1482.5 74.32l94.5 104.5M1577 178.82l345 70M1922 248.82V2.79M1922 2.79h-369"/><path class="b" d="M678.53 27.41l5.19 10.95c-7.89-1.12-11.83-1.7-19.71-2.9l20.1 39.78c-4.06-.62-6.09-.93-10.15-1.57l-20.84-39.89c-7.87-1.24-11.81-1.88-19.67-3.21l-6.13-11.09q25.57 4.22 51.21 7.93zM733.42 53.31l12.06 30.22q-14.48-1.7-28.91-3.65c-5.22-.7-11.61-5.92-14.19-11.46l-7.26-15.56q14.84 2.08 29.72 3.9l-1.74-4.18q-15-1.84-29.94-3.93l-5-10.73q15.51 2.17 31.06 4.07c5.61.71 12.01 5.83 14.2 11.32zm-4.69 12.79c-7.58-.94-11.38-1.42-19-2.44l2.51 5.59c7.5 1 11.26 1.48 18.76 2.41zM791.69 62.63c1.68 5.57-1.45 9.78-7 9.26h-.47C789 76.31 794 81 798.58 85.46l1.1 3.64c-4.19-.37-6.28-.56-10.47-1-7.3-7-11-10.54-18.65-17.63-5.54-.53-8.31-.81-13.85-1.38.13 0 .25.16.36.44a.49.49 0 0 1-.23-.09l5.89 16c-4.05-.44-6.08-.66-10.13-1.13l-19.28-49.83q20.37 2.32 40.79 4.23c5.86.55 12 5.57 13.72 11.14zm-39-4.36q14 1.53 28 2.83L777 49.33q-14.36-1.33-28.66-2.89zM833.32 43.28c5.87.37 11.58 5.15 12.71 10.75L851.86 83c1.13 5.6-2.35 9.85-7.73 9.5q-18.71-1.19-37.39-2.76l-14.28-49.47q20.41 1.73 40.86 3.01zM814 79.84c10.9.86 16.35 1.24 27.26 1.94L835.1 53.9q-14.34-.9-28.67-2zM852.08 44.39c4.47.24 6.7.36 11.18.57l8.27 49c-4.09-.2-6.14-.3-10.23-.53zM920.07 61.49c-4.39-.09-6.58-.14-11-.26l-.37-4q-14.35-.37-28.7-1l1.22 8.57q14.44.6 28.89 1a11.45 11.45 0 0 1 11 10.29l.7 9.64c.4 5.57-3.67 10-9 9.82-11.12-.29-16.69-.48-27.81-.93-5.38-.22-10.43-4.92-11.33-10.5l-.67-4.58c4.18.19 6.27.29 10.44.46l.57 4c10.92.45 16.38.63 27.3.92l-.79-8.56q-14.1-.36-28.21-1A12.93 12.93 0 0 1 870.6 64.9l-1.6-9.67c-.9-5.58 3.1-9.85 9-9.61q15.19.64 30.39 1c5.81.15 10.93 4.73 11.34 10.29zM999.71 69.65a11.25 11.25 0 0 1-10.78 10.22h-.47c3.24 4 6.65 8.3 9.66 12.31l-.25 3.6c-4.2.09-6.3.12-10.5.18-4.9-6.36-7.42-9.54-12.64-15.93-5.57.07-8.36.09-13.93.12q.2 0 .2.41a.33.33 0 0 1-.2-.07v15.67h-10.17q-.46-24.39-.93-48.78 20.47.11 40.93-.19c5.88-.09 10.36 4.36 10 9.86zm-38.91-.15q14.06 0 28.12-.21l.59-11.6q-14.35.22-28.71.21v11.61zM1039 55.26c5.64-.22 9.52 4.06 8.68 9.44l-3.08 19.74c-.84 5.38-5.8 10.06-11 10.27-7.82.31-11.73.44-19.54.67a8.57 8.57 0 0 1-8.69-9.59l1.64-19.69c.45-5.36 5.47-10 11-10.12 8.38-.24 12.58-.38 20.99-.72zM1015.58 85c7.54-.22 11.32-.35 18.86-.65l2.56-18.66c-7.8.31-11.71.44-19.51.67zM1095.07 62l-4.76 19.84c-1.3 5.4-6.64 10.22-11.88 10.55q-14.51.94-29 1.64l8.81-52.45c4.41-.21 6.62-.33 11-.56l-2.42 13c8.17-.44 12.26-.68 20.43-1.21 5.63-.42 9.12 3.78 7.82 9.19zm-33.69 21.08c7.54-.41 11.31-.63 18.84-1.11l4.14-18.72c-7.8.5-11.7.73-19.5 1.15zM1134 49.2c5.63-.5 8.74 3.62 7 9.06l-6.38 20c-1.74 5.44-7.44 10.38-12.68 10.85-7.8.69-11.7 1-19.51 1.61-5.17.4-8.37-3.81-7-9.21l4.95-19.85c1.35-5.41 7.12-10.26 12.68-10.69 8.33-.69 12.53-1.03 20.94-1.77zm-28.24 31c7.53-.59 11.3-.9 18.82-1.56l5.68-18.84c-7.79.68-11.68 1-19.48 1.61zM1157.49 57.18l-6.59 18.92c5.73-.59 8.6-.89 14.33-1.52l-4 10.6c-5.8.64-8.71.94-14.51 1.54-5.3.54-8-3.6-6.25-9l13.82-41.84c4.39-.42 6.59-.64 11-1.09l-4.14 11.88c6-.62 9.06-.94 15.1-1.6l-4 10.6c-5.86.59-8.82.9-14.76 1.51zM1198.07 29.93l-4.29 10.7c-4.31.51-6.47.76-10.79 1.25l4.09-10.68c4.39-.5 6.59-.75 10.99-1.27zm-16 14.44c4.3-.48 6.45-.73 10.74-1.24l-16.15 40.3c-4 .47-6 .7-10 1.15zM1204.91 51.75l-8.18 19.1q14.48-1.83 28.93-3.9l-5.13 10.74q-14.43 2.07-28.89 3.89c-5.16.65-7.58-3.42-5.32-8.91l8.28-20.17c2.26-5.5 8.77-10.65 14.31-11.35q15.51-2 31-4.17l-5.12 10.74q-14.93 2.14-29.88 4.03zM1281.59 41.81c-4.21.71-6.32 1.06-10.54 1.74l.8-1.49c-7.74 1.26-11.61 1.87-19.36 3l-2.14 4.23c7.91-1.2 11.86-1.83 19.76-3.11 5.52-.9 7.35 3 4.24 8.67l-3 5.48c-3.11 5.62-9.93 11-15.19 11.88-7.75 1.26-11.63 1.87-19.39 3.05-5.14.78-7.17-3.23-4.46-8.79l1-2c4.08-.6 6.11-.9 10.19-1.52l-.75 1.48c7.49-1.14 11.23-1.73 18.71-2.94l2.28-4.25c-7.75 1.26-11.63 1.87-19.39 3-5.29.8-7.43-3.19-4.72-8.75l2.65-5.42c2.72-5.56 9.61-10.87 15.13-11.71 8.34-1.27 12.51-1.92 20.84-3.28 5.66-.92 7.61 3 4.5 8.62z"/></svg>